<mxfile host="app.diagrams.net" modified="2024-03-31T15:11:55.064Z" agent="Mozilla/5.0 (Macintosh; Intel Mac OS X 10_15_7) AppleWebKit/537.36 (KHTML, like Gecko) Chrome/123.0.0.0 Safari/537.36" version="24.2.1" etag="RkKUlvH8uh2M2PzLNF9K" type="github">
  <diagram name="Page-1" id="OiUaLy7SL6av2UkUXv2e">
    <mxGraphModel>
      <root>
        <mxCell id="0" />
        <mxCell id="1" parent="0" />
      </root>
    </mxGraphModel>
  </diagram>
</mxfile>
